# xmcd
#
# Track frame offsets:
#	150
#	18113
#	34442
#	50489
#	66336
#	81566
#	94400
#	114947
#	128232
#	146182
#	165370
#	183502
#	198489
#	216999
#
# Disc length: 3114 seconds
#
# Revision: 1
# Processed by: cddbd v1.5.2PL0 Copyright (c) Steve Scherf et al.
# Submitted via: EasyCDDAExtractor 10.5.1.1
#
DISCID=d20c280e
DTITLE=Rune Rudberg - Fri Som En Vind [3 Cd - Cd 1]
DYEAR=2003
DGENRE=Danseband
TTITLE0=Ut Mot Havet
TTITLE1=Far and Sønn
TTITLE2=I Min Gitar
TTITLE3=Kjære Min Engel
TTITLE4=Fri Som En Vind
TTITLE5=Mot Samme Morgendag
TTITLE6=Som Et Fyrtårn
TTITLE7=Hun Har Blomster I Sitt Hår
TTITLE8=Vindenes Venn
TTITLE9=Helene
TTITLE10=Stjerneskudd I Natten
TTITLE11=Gamle Mack
TTITLE12=Jeg Vil Våkne Opp Med Deg
TTITLE13=Holde En Drøm
EXTD=Samle Plate VOL 1
EXTT0=
EXTT1=
EXTT2=
EXTT3=
EXTT4=
EXTT5=
EXTT6=
EXTT7=
EXTT8=
EXTT9=
EXTT10=
EXTT11=
EXTT12=
EXTT13=
PLAYORDER=
